<?xml version="1.0" encoding="utf-8"?>
<!-- Generator: Adobe Illustrator 25.0.0, SVG Export Plug-In . SVG Version: 6.00 Build 0)  -->
<svg version="1.1" xmlns="http://www.w3.org/2000/svg" xmlns:xlink="http://www.w3.org/1999/xlink" x="0px" y="0px"
	 viewBox="0 0 1920 1080" enable-background="new 0 0 1920 1080" xml:space="preserve">
<path fill="none" stroke="#000000" stroke-linecap="round" stroke-linejoin="round" stroke-miterlimit="10" d="M784.834,857.39
	c0,0-44.03,33.869-120.574,58.255c-76.544,24.386-130.735,37.256-142.928,39.288c-12.193,2.032-10.838-23.031-10.161-28.45
	c0.677-5.419-0.172-39.96-21.032-69.888c-20.859-29.928-35.37-52.148-76.635-51.695c-41.265,0.453-86.655,7.537-101.575-15.418
	c-17.685-27.208-5.947-58.739-16.778-63.485c-8.698-3.811-16.156-9.212-17.699-13.584c-1.543-4.372-3.343-23.66,3.086-28.803
	c-12.859-13.116-16.973-24.174-13.373-31.118c3.6-6.944,9.529-23.683-3.374-30.31c-12.904-6.626-40.455-20.925-36.967-37.665
	s29.295-40.455,41.849-57.194c12.555-16.74,33.48-42.198,29.992-54.753c-3.487-12.555-20.925-59.287-5.58-119.62
	s32.782-96.254,85.094-133.918s140.464-79.759,238.639-72.95s190.674,54.478,235.505,133.358
	c44.831,78.88,34.616,145.276,14.187,213.374s-62.991,104.984-85.122,139.601s-28.374,76.043-19.294,126.549
	S784.834,857.39,784.834,857.39z"/>
<path fill="none" stroke="#000000" stroke-linecap="round" stroke-linejoin="round" stroke-miterlimit="10" d="M593.282,669.776
	c0,0-6.508,21.151-13.558,39.048c-7.05,17.897-72.13,40.133-127.991,59.657s-105.213,31.998-105.213,31.998
	c-11.142,3.232-21.305-0.156-21.305-0.156"/>
<path fill="none" stroke="#000000" stroke-linecap="round" stroke-linejoin="round" stroke-miterlimit="10" d="M265.889,656.371
	c0,0,2.711-4.518,8.734,0.602s35.539,20.179,41.262,21.986c5.722,1.807,9.638,6.024,5.722,14.457
	c-3.915,8.433-11.445,15.661-19.878,18.974c-8.433,3.313-16.264,5.722-22.287,3.313"/>
<path fill="none" stroke="#000000" stroke-linecap="round" stroke-linejoin="round" stroke-miterlimit="10" d="M280.539,683.61
	c0,0,11.322-1.076,35.802,3.128"/>
<path fill="none" stroke="#000000" stroke-linecap="round" stroke-linejoin="round" stroke-miterlimit="10" d="M260.388,612.645
	c0,0-9.308-4.945-8.726-10.181c0.582-5.236,14.835-2.618,27.052,3.2c12.217,5.818,2.618,11.344-1.745,10.763"/>
<path fill="none" stroke="#000000" stroke-linecap="round" stroke-linejoin="round" stroke-miterlimit="10" d="M298.494,582.393
	c0,0,4.796,6.356,4.072,15.999c-0.873,11.635-6.69,23.271-21.525,24.434"/>
<path fill="none" stroke="#000000" stroke-linecap="round" stroke-linejoin="round" stroke-miterlimit="10" d="M371.92,473.253
	c0,0-17.338-10.65-21.804-10.645c-6.157,0.007-7.093,8.043-7.093,8.043c-2.627-6.624-0.525-15.613,7.093-17.032
	c7.618-1.419,23.386,14.212,24.962,19.417c-6.585,11.745-23.123,31.443-26.013,22.454
	C356.077,493.057,369.159,478.837,371.92,473.253z"/>
<path fill="none" stroke="#000000" stroke-linecap="round" stroke-linejoin="round" stroke-miterlimit="10" d="M344.411,466.691
	c0,0-1.427,16.054,6.756,27.616"/>
<path fill="none" stroke="#000000" stroke-linecap="round" stroke-linejoin="round" stroke-miterlimit="10" d="M304.886,448.011
	c0,0,10.907-12.724,33.811-13.452s46.535,24.358,46.535,24.358"/>
<path fill="none" stroke="#000000" stroke-linecap="round" stroke-linejoin="round" stroke-miterlimit="10" d="M630.441,478.521
	c0,0,10.729-40.768,44.201-52.355c33.473-11.587,66.946,0.858,78.104,51.926c11.158,51.068-38.194,87.116-52.355,101.277
	c-14.162,14.162-33.902,32.186-54.072,33.902s-34.331-7.725-36.477-12.016"/>
<path fill="none" stroke="#000000" stroke-linecap="round" stroke-linejoin="round" stroke-miterlimit="10" d="M654.902,517.573
	c0,0,5.579,9.87-3.004,18.453s-15.02,25.748,3.862,15.878s18.453,2.575,32.186-12.874c13.733-15.449,18.882-38.623-5.15-39.91
	c-24.032-1.287-20.599-27.465-19.74-30.469c0.858-3.004,9.441-32.615,42.914-29.611c33.473,3.004,37.764,45.06,28.752,66.946"/>
<path fill="none" stroke="#000000" stroke-linecap="round" stroke-linejoin="round" stroke-miterlimit="10" d="M1521.055,472.579
	c3.788-8.207,14.835-28.723,35.667-39.455c20.832-10.732,41.033-14.835,57.446,2.525s29.039,40.717,22.095,68.494
	s-31.248,53.027-41.664,62.181c-10.416,9.154-22.726,19.57-32.826,29.039c-10.1,9.469-23.673,11.994-36.93,12.31
	c-13.257,0.316-21.779-10.1-28.408-8.522"/>
<path fill="none" stroke="#000000" stroke-linecap="round" stroke-linejoin="round" stroke-miterlimit="10" d="M1545.043,514.875
	c0,0,4.419,6.944-2.209,15.466c-6.628,8.522-14.204,11.994-10.1,18.938c4.103,6.944,15.151-0.631,19.57-2.841
	s12.625,0.947,18.307-4.735s11.047-24.935,8.838-35.036s-15.354-14.882-15.354-14.882"/>
<path fill="none" stroke="#000000" stroke-linecap="round" stroke-linejoin="round" stroke-miterlimit="10" d="M1557.214,507.008
	c0,0-7.272-2.727-4.545-24.998c2.727-22.271,23.371-40.643,35.643-40.643c14.09,0,40.558,14.291,32.989,62.46
	c-5,31.816-33.18,50.451-33.18,50.451"/>
<path fill="none" stroke="#000000" stroke-linecap="round" stroke-linejoin="round" stroke-miterlimit="10" d="M1119.14,512.131
	c0,0,12.708-20.802,18.822-31.434c6.114-10.632,5.71-23.217-6.605-31.694c-7.191-4.95-13.065-5.469-13.065-5.469"/>
<path fill="none" stroke="#000000" stroke-linecap="round" stroke-linejoin="round" stroke-miterlimit="10" d="M1140.399,460.618
	c-3.892-4.448-14.733-5.56-18.903,4.726c-2.775,6.845-0.317,15.183-0.317,15.183s2.8,10.678,10.047,10.67"/>
<path fill="none" stroke="#000000" stroke-linecap="round" stroke-linejoin="round" stroke-miterlimit="10" d="M1115.081,457.904
	c0,0,3.818-5.711,10.047-6.319"/>
<path fill="none" stroke="#000000" stroke-linecap="round" stroke-linejoin="round" stroke-miterlimit="10" d="M1165.965,447.407
	c0,0,17.843-30.191,58.399-24.46c28.129,3.975,43.723,17.428,43.723,17.428"/>
<path fill="none" stroke="#000000" stroke-linecap="round" stroke-linejoin="round" stroke-miterlimit="10" d="M1254.737,441.276
	c0,0-12.703-4.397-25.405-1.466c-12.703,2.931-13.924,17.588-13.924,17.588"/>
<path fill="none" stroke="#000000" stroke-linecap="round" stroke-linejoin="round" stroke-miterlimit="10" d="M1267.684,461.308
	c0,0-15.146-9.038-26.138-12.214c-10.993-3.176-17.833,2.443-18.565,11.481c-0.733,9.038,1.954,20.031,6.107,21.497
	S1245.21,484.026,1267.684,461.308z"/>
<path fill="none" stroke="#000000" stroke-linecap="round" stroke-linejoin="round" stroke-miterlimit="10" d="M1111.493,608.473
	c2.114,1.263,6.609,3.957,6.677,7.244c0.204,9.721-10.246,29.204-11.775,35.066c-1.529,5.862,1.529,16.822,12.999,25.997
	c-6.882,6.372-5.352,18.096-3.823,25.233c1.529,7.137,10.96,10.96,10.96,10.96s3.313,24.723,8.72,45.747
	c5.406,21.024,19.823,36.041,33.939,41.147c14.116,5.106,53.461,1.802,76.288,0.601c22.826-1.201,31.837,9.611,40.246,21.325
	s23.127,39.646,22.526,53.762s-2.403,44.151-2.403,53.762c0,9.611,16.519,21.925,38.745,21.925c17.678,0,40.463-5.572,60.375-11.944
	s90.797-25.089,136.594-48.186c45.797-23.097,54.16-37.036,54.16-37.036s-7.168-28.274-13.938-60.133
	c-6.77-31.859-2.788-84.027-1.593-95.974c1.195-11.947-1.195-41.814,35.841-94.381c37.036-52.567,52.965-90.001,66.903-142.169
	c13.938-52.168,12.345-99.558-0.797-148.541s-54.16-97.965-104.735-132.611c-50.575-34.646-121.461-51.77-176.019-50.576
	c-54.558,1.195-90.067,10.578-140.787,31.732c-50.72,21.155-91.5,58.876-111.126,86.403s-25.488,50.21-35.682,86.658
	c-10.195,36.447-9.43,79.776-7.646,90.481c1.784,10.705,10.705,43.839,15.038,55.563c-1.529,6.117-3.568,17.332-2.039,31.605
	c-8.666,16.312-25.742,35.173-34.153,45.878c-8.411,10.705-5.352,23.449,1.274,31.35
	C1092.888,597.259,1104.7,604.414,1111.493,608.473z"/>
<path fill="none" stroke="#000000" stroke-linecap="round" stroke-linejoin="round" stroke-miterlimit="10" d="M1119.483,598.563
	c-7.357-5.395-1.226-10.546,8.829-8.584s25.26,6.622,24.034,11.281c-1.226,4.66-10.791,3.924-10.791,3.924"/>
<path fill="none" stroke="#000000" stroke-linecap="round" stroke-linejoin="round" stroke-miterlimit="10" d="M1142.536,611.316
	c0,0,16.922,1.717,25.506-10.546c8.584-12.262-0.245-28.203-3.433-33.599"/>
<path fill="none" stroke="#000000" stroke-linecap="round" stroke-linejoin="round" stroke-miterlimit="10" d="M1185.176,802.227
	c0,0,27.927,0.416,82.105-16.776c54.178-17.191,131.482-50.947,157.529-61.887c26.047-10.94,42.718-38.029,51.574-66.681"/>
<path fill="none" stroke="#000000" stroke-linecap="round" stroke-linejoin="round" stroke-miterlimit="10" d="M1106.829,648.668
	c2.876-3.739,6.902-3.451,9.778-1.15c2.876,2.301,5.752,2.013,8.915,0.288c3.164-1.726,10.641-3.164,19.269,2.013
	s32.211,16.105,41.701,18.981c9.491,2.876,15.242,5.752,14.955,10.066c-0.288,4.314-5.177,13.229-21.569,22.145
	c-16.393,8.915-38.822,15.296-53.347,11.962"/>
<path fill="none" stroke="#000000" stroke-linecap="round" stroke-linejoin="round" stroke-miterlimit="10" d="M1119.395,676.78
	c6.143-1.467,16.647-1.02,30.057-0.349c13.409,0.67,32.182,2.235,39.781,2.458"/>
<path fill="none" stroke="#000000" stroke-linecap="round" stroke-linejoin="round" stroke-miterlimit="10" d="M1224.975,480.581
	c0,0,1.537,4.834,7.904,5.504c6.367,0.67,14.745-2.346,22.117-7.372c7.372-5.026,19.771-18.096,19.771-18.096
	s-5.809-3.789-12.231-7.205c-7.875-4.189-15.918-9.383-26.306-9.048c-11.733,0.378-14.606,12.09-14.606,12.09"/>
<g>
</g>
<g>
</g>
<g>
</g>
<g>
</g>
<g>
</g>
<g>
</g>
<g>
</g>
<g>
</g>
<g>
</g>
<g>
</g>
<g>
</g>
<g>
</g>
<g>
</g>
<g>
</g>
<g>
</g>
</svg>
